
      <svg data-logo="logo" xmlns="http://www.w3.org/2000/svg" viewBox="0 0 113 42">
        <g id="logogram" transform="translate(0, 1) rotate(0) "><path d="M3.30396 17.1323C3.71066 15.3021 5.33391 14 7.20871 14H12L8.00002 32H4.98649C2.4275 32 0.526616 29.6303 1.08174 27.1323L3.30396 17.1323Z" fill="#121FCF"/><path d="M39.2852 8H21.2861L20.6777 10.8384C20.2824 12.6825 18.6526 14 16.7666 14H12L14.3216 3.16214C14.7167 1.31774 16.3467 0 18.2329 0H36.0513C38.5978 0 40.496 2.34793 39.9626 4.83792L39.2852 8Z" fill="#CF1512"/><path d="M30.9627 36.8379C30.5676 38.6823 28.9377 40 27.0514 40H11.233C8.68648 40 6.78828 37.6521 7.32172 35.1621L7.99914 32H31.9991L30.9627 36.8379Z" fill="#121FCF"/><path d="M38.6269 17C41.2292 17 43.1386 19.4456 42.5075 21.9701L40.7575 28.9701C40.3123 30.7508 38.7124 32 36.8769 32H32L33.75 25H14L15.0364 20.1621C15.4316 18.3177 17.0615 17 18.9477 17H38.6269Z" fill="#CF1512"/></g>
        <g id="logotype" transform="translate(49, 6)"><path fill="#ffffff" d="M12.36 30L6.51 30L9.42-0.08L19.62-0.08L22.47 30L16.78 30L16.36 25.15L12.73 25.15L12.36 30ZM14.31 5.05L13.16 20.34L15.90 20.34L14.58 5.05L14.31 5.05ZM33.53 30L26.20 30L22.97-0.08L28.85-0.08L30.51 18.91L32.20-0.08L37.80-0.08L39.41 18.91L41.02-0.08L46.96-0.08L43.68 30L36.47 30L34.97 15.52L33.53 30ZM53.30 30L47.46 30L50.37-0.08L60.57-0.08L63.42 30L57.73 30L57.30 25.15L53.68 25.15L53.30 30ZM55.25 5.05L54.11 20.34L56.84 20.34L55.53 5.05L55.25 5.05Z"/></g>
        
      </svg>
    